  0
SECTION
  2
HEADER
  9
$ACADVER
  1
AC1009
  9
$FILLMODE
 70
 0
  9
$SPLFRAME
 70
 1
  9
$EXTMIN
 10
0
 20
0
 30
0.0
  9
$EXTMAX
 10
1058.33
 20
1058.33
 30
0.0
  0
ENDSEC
  0
SECTION
  2
TABLES
  0
TABLE
  2
LAYER
 70
1
  0
LAYER
  2
0
 70
     0
 62
     7
  6
CONTINUOUS
  0
ENDTAB
  0
ENDSEC
  0
SECTION
  2
ENTITIES
  0
LINE
  8
0
 62
     0
 10
0.0950846
 20
107.149
 30
0.0
 11
145.18
 21
107.149
 31
0.0
  0
LINE
  8
0
 62
     0
 10
145.18
 20
107.149
 30
0.0
 11
145.18
 21
0.163987
 31
0.0
  0
LINE
  8
0
 62
     0
 10
145.18
 20
0.163987
 30
0.0
 11
0.0950846
 21
0.163987
 31
0.0
  0
LINE
  8
0
 62
     0
 10
0.0950846
 20
0.163987
 30
0.0
 11
0.0950846
 21
107.149
 31
0.0
  0
LINE
  8
0
 62
     0
 10
92.0143
 20
7.76799
 30
0.0
 11
105.537
 21
4.14376
 31
0.0
  0
LINE
  8
0
 62
     0
 10
105.537
 20
4.14376
 30
0.0
 11
109.16
 21
17.6664
 31
0.0
  0
LINE
  8
0
 62
     0
 10
109.16
 20
17.6664
 30
0.0
 11
95.6373
 21
21.2907
 31
0.0
  0
LINE
  8
0
 62
     0
 10
95.6373
 20
21.2907
 30
0.0
 11
92.0143
 21
7.76799
 31
0.0
  0
LINE
  8
0
 62
     0
 10
120.224
 20
14.7395
 30
0.0
 11
132.348
 21
7.73906
 31
0.0
  0
LINE
  8
0
 62
     0
 10
132.348
 20
7.73906
 30
0.0
 11
139.349
 21
19.863
 31
0.0
  0
LINE
  8
0
 62
     0
 10
139.349
 20
19.863
 30
0.0
 11
127.225
 21
26.8635
 31
0.0
  0
LINE
  8
0
 62
     0
 10
127.225
 20
26.8635
 30
0.0
 11
120.224
 21
14.7395
 31
0.0
  0
LINE
  8
0
 62
     0
 10
69.2933
 20
23.6623
 30
0.0
 11
83.294
 21
23.6623
 31
0.0
  0
LINE
  8
0
 62
     0
 10
83.294
 20
23.6623
 30
0.0
 11
83.294
 21
9.6628
 31
0.0
  0
LINE
  8
0
 62
     0
 10
83.294
 20
9.6628
 30
0.0
 11
69.2933
 21
9.6628
 31
0.0
  0
LINE
  8
0
 62
     0
 10
69.2933
 20
9.6628
 30
0.0
 11
69.2933
 21
23.6623
 31
0.0
  0
LINE
  8
0
 62
     0
 10
12.1447
 20
40.2375
 30
0.0
 11
26.1441
 21
40.2375
 31
0.0
  0
LINE
  8
0
 62
     0
 10
26.1441
 20
40.2375
 30
0.0
 11
26.1441
 21
26.2365
 31
0.0
  0
LINE
  8
0
 62
     0
 10
26.1441
 20
26.2365
 30
0.0
 11
12.1447
 21
26.2365
 31
0.0
  0
LINE
  8
0
 62
     0
 10
12.1447
 20
26.2365
 30
0.0
 11
12.1447
 21
40.2375
 31
0.0
  0
LINE
  8
0
 62
     0
 10
31.1947
 20
40.3324
 30
0.0
 11
45.194
 21
40.3324
 31
0.0
  0
LINE
  8
0
 62
     0
 10
45.194
 20
40.3324
 30
0.0
 11
45.194
 21
26.3315
 31
0.0
  0
LINE
  8
0
 62
     0
 10
45.194
 20
26.3315
 30
0.0
 11
31.1947
 21
26.3315
 31
0.0
  0
LINE
  8
0
 62
     0
 10
31.1947
 20
26.3315
 30
0.0
 11
31.1947
 21
40.3324
 31
0.0
  0
LINE
  8
0
 62
     0
 10
107.395
 20
42.7122
 30
0.0
 11
121.394
 21
42.7122
 31
0.0
  0
LINE
  8
0
 62
     0
 10
121.394
 20
42.7122
 30
0.0
 11
121.394
 21
28.7128
 31
0.0
  0
LINE
  8
0
 62
     0
 10
121.394
 20
28.7128
 30
0.0
 11
107.395
 21
28.7128
 31
0.0
  0
LINE
  8
0
 62
     0
 10
107.395
 20
28.7128
 30
0.0
 11
107.395
 21
42.7122
 31
0.0
  0
LINE
  8
0
 62
     0
 10
50.2447
 20
45.0935
 30
0.0
 11
64.244
 21
45.0935
 31
0.0
  0
LINE
  8
0
 62
     0
 10
64.244
 20
45.0935
 30
0.0
 11
64.244
 21
31.094
 31
0.0
  0
LINE
  8
0
 62
     0
 10
64.244
 20
31.094
 30
0.0
 11
50.2447
 21
31.094
 31
0.0
  0
LINE
  8
0
 62
     0
 10
50.2447
 20
31.094
 30
0.0
 11
50.2447
 21
45.0935
 31
0.0
  0
LINE
  8
0
 62
     0
 10
88.3447
 20
45.0935
 30
0.0
 11
102.344
 21
45.0935
 31
0.0
  0
LINE
  8
0
 62
     0
 10
102.344
 20
45.0935
 30
0.0
 11
102.344
 21
31.094
 31
0.0
  0
LINE
  8
0
 62
     0
 10
102.344
 20
31.094
 30
0.0
 11
88.3447
 21
31.094
 31
0.0
  0
LINE
  8
0
 62
     0
 10
88.3447
 20
31.094
 30
0.0
 11
88.3447
 21
45.0935
 31
0.0
  0
LINE
  8
0
 62
     0
 10
69.2947
 20
47.4747
 30
0.0
 11
83.294
 21
47.4747
 31
0.0
  0
LINE
  8
0
 62
     0
 10
83.294
 20
47.4747
 30
0.0
 11
83.294
 21
33.4753
 31
0.0
  0
LINE
  8
0
 62
     0
 10
83.294
 20
33.4753
 30
0.0
 11
69.2947
 21
33.4753
 31
0.0
  0
LINE
  8
0
 62
     0
 10
69.2947
 20
33.4753
 30
0.0
 11
69.2947
 21
47.4747
 31
0.0
  0
LINE
  8
0
 62
     0
 10
12.1447
 20
59.2861
 30
0.0
 11
26.1441
 21
59.2861
 31
0.0
  0
LINE
  8
0
 62
     0
 10
26.1441
 20
59.2861
 30
0.0
 11
26.1441
 21
45.2864
 31
0.0
  0
LINE
  8
0
 62
     0
 10
26.1441
 20
45.2864
 30
0.0
 11
12.1447
 21
45.2864
 31
0.0
  0
LINE
  8
0
 62
     0
 10
12.1447
 20
45.2864
 30
0.0
 11
12.1447
 21
59.2861
 31
0.0
  0
LINE
  8
0
 62
     0
 10
31.1947
 20
59.3824
 30
0.0
 11
45.194
 21
59.3824
 31
0.0
  0
LINE
  8
0
 62
     0
 10
45.194
 20
59.3824
 30
0.0
 11
45.194
 21
45.3817
 31
0.0
  0
LINE
  8
0
 62
     0
 10
45.194
 20
45.3817
 30
0.0
 11
31.1947
 21
45.3817
 31
0.0
  0
LINE
  8
0
 62
     0
 10
31.1947
 20
45.3817
 30
0.0
 11
31.1947
 21
59.3824
 31
0.0
  0
LINE
  8
0
 62
     0
 10
107.395
 20
61.7622
 30
0.0
 11
121.394
 21
61.7622
 31
0.0
  0
LINE
  8
0
 62
     0
 10
121.394
 20
61.7622
 30
0.0
 11
121.394
 21
47.7629
 31
0.0
  0
LINE
  8
0
 62
     0
 10
121.394
 20
47.7629
 30
0.0
 11
107.395
 21
47.7629
 31
0.0
  0
LINE
  8
0
 62
     0
 10
107.395
 20
47.7629
 30
0.0
 11
107.395
 21
61.7622
 31
0.0
  0
LINE
  8
0
 62
     0
 10
50.2447
 20
64.1435
 30
0.0
 11
64.244
 21
64.1435
 31
0.0
  0
LINE
  8
0
 62
     0
 10
64.244
 20
64.1435
 30
0.0
 11
64.244
 21
50.1442
 31
0.0
  0
LINE
  8
0
 62
     0
 10
64.244
 20
50.1442
 30
0.0
 11
50.2447
 21
50.1442
 31
0.0
  0
LINE
  8
0
 62
     0
 10
50.2447
 20
50.1442
 30
0.0
 11
50.2447
 21
64.1435
 31
0.0
  0
LINE
  8
0
 62
     0
 10
88.3447
 20
64.1435
 30
0.0
 11
102.344
 21
64.1435
 31
0.0
  0
LINE
  8
0
 62
     0
 10
102.344
 20
64.1435
 30
0.0
 11
102.344
 21
50.1442
 31
0.0
  0
LINE
  8
0
 62
     0
 10
102.344
 20
50.1442
 30
0.0
 11
88.3447
 21
50.1442
 31
0.0
  0
LINE
  8
0
 62
     0
 10
88.3447
 20
50.1442
 30
0.0
 11
88.3447
 21
64.1435
 31
0.0
  0
LINE
  8
0
 62
     0
 10
69.2947
 20
66.5247
 30
0.0
 11
83.294
 21
66.5247
 31
0.0
  0
LINE
  8
0
 62
     0
 10
83.294
 20
66.5247
 30
0.0
 11
83.294
 21
52.5254
 31
0.0
  0
LINE
  8
0
 62
     0
 10
83.294
 20
52.5254
 30
0.0
 11
69.2947
 21
52.5254
 31
0.0
  0
LINE
  8
0
 62
     0
 10
69.2947
 20
52.5254
 30
0.0
 11
69.2947
 21
66.5247
 31
0.0
  0
LINE
  8
0
 62
     0
 10
12.1447
 20
78.3361
 30
0.0
 11
26.1441
 21
78.3361
 31
0.0
  0
LINE
  8
0
 62
     0
 10
26.1441
 20
78.3361
 30
0.0
 11
26.1441
 21
64.3364
 31
0.0
  0
LINE
  8
0
 62
     0
 10
26.1441
 20
64.3364
 30
0.0
 11
12.1447
 21
64.3364
 31
0.0
  0
LINE
  8
0
 62
     0
 10
12.1447
 20
64.3364
 30
0.0
 11
12.1447
 21
78.3361
 31
0.0
  0
LINE
  8
0
 62
     0
 10
31.1947
 20
78.4324
 30
0.0
 11
45.194
 21
78.4324
 31
0.0
  0
LINE
  8
0
 62
     0
 10
45.194
 20
78.4324
 30
0.0
 11
45.194
 21
64.4317
 31
0.0
  0
LINE
  8
0
 62
     0
 10
45.194
 20
64.4317
 30
0.0
 11
31.1947
 21
64.4317
 31
0.0
  0
LINE
  8
0
 62
     0
 10
31.1947
 20
64.4317
 30
0.0
 11
31.1947
 21
78.4324
 31
0.0
  0
LINE
  8
0
 62
     0
 10
107.395
 20
80.8122
 30
0.0
 11
121.394
 21
80.8122
 31
0.0
  0
LINE
  8
0
 62
     0
 10
121.394
 20
80.8122
 30
0.0
 11
121.394
 21
66.8129
 31
0.0
  0
LINE
  8
0
 62
     0
 10
121.394
 20
66.8129
 30
0.0
 11
107.395
 21
66.8129
 31
0.0
  0
LINE
  8
0
 62
     0
 10
107.395
 20
66.8129
 30
0.0
 11
107.395
 21
80.8122
 31
0.0
  0
LINE
  8
0
 62
     0
 10
50.2447
 20
83.1935
 30
0.0
 11
64.244
 21
83.1935
 31
0.0
  0
LINE
  8
0
 62
     0
 10
64.244
 20
83.1935
 30
0.0
 11
64.244
 21
69.1942
 31
0.0
  0
LINE
  8
0
 62
     0
 10
64.244
 20
69.1942
 30
0.0
 11
50.2447
 21
69.1942
 31
0.0
  0
LINE
  8
0
 62
     0
 10
50.2447
 20
69.1942
 30
0.0
 11
50.2447
 21
83.1935
 31
0.0
  0
LINE
  8
0
 62
     0
 10
88.3447
 20
83.1935
 30
0.0
 11
102.344
 21
83.1935
 31
0.0
  0
LINE
  8
0
 62
     0
 10
102.344
 20
83.1935
 30
0.0
 11
102.344
 21
69.1942
 31
0.0
  0
LINE
  8
0
 62
     0
 10
102.344
 20
69.1942
 30
0.0
 11
88.3447
 21
69.1942
 31
0.0
  0
LINE
  8
0
 62
     0
 10
88.3447
 20
69.1942
 30
0.0
 11
88.3447
 21
83.1935
 31
0.0
  0
LINE
  8
0
 62
     0
 10
69.2947
 20
85.5747
 30
0.0
 11
83.294
 21
85.5747
 31
0.0
  0
LINE
  8
0
 62
     0
 10
83.294
 20
85.5747
 30
0.0
 11
83.294
 21
71.5754
 31
0.0
  0
LINE
  8
0
 62
     0
 10
83.294
 20
71.5754
 30
0.0
 11
69.2947
 21
71.5754
 31
0.0
  0
LINE
  8
0
 62
     0
 10
69.2947
 20
71.5754
 30
0.0
 11
69.2947
 21
85.5747
 31
0.0
  0
LINE
  8
0
 62
     0
 10
12.1447
 20
97.3861
 30
0.0
 11
26.1441
 21
97.3861
 31
0.0
  0
LINE
  8
0
 62
     0
 10
26.1441
 20
97.3861
 30
0.0
 11
26.1441
 21
83.3864
 31
0.0
  0
LINE
  8
0
 62
     0
 10
26.1441
 20
83.3864
 30
0.0
 11
12.1447
 21
83.3864
 31
0.0
  0
LINE
  8
0
 62
     0
 10
12.1447
 20
83.3864
 30
0.0
 11
12.1447
 21
97.3861
 31
0.0
  0
LINE
  8
0
 62
     0
 10
31.1947
 20
97.4824
 30
0.0
 11
45.194
 21
97.4824
 31
0.0
  0
LINE
  8
0
 62
     0
 10
45.194
 20
97.4824
 30
0.0
 11
45.194
 21
83.4817
 31
0.0
  0
LINE
  8
0
 62
     0
 10
45.194
 20
83.4817
 30
0.0
 11
31.1947
 21
83.4817
 31
0.0
  0
LINE
  8
0
 62
     0
 10
31.1947
 20
83.4817
 30
0.0
 11
31.1947
 21
97.4824
 31
0.0
  0
LINE
  8
0
 62
     0
 10
107.395
 20
99.8622
 30
0.0
 11
121.394
 21
99.8622
 31
0.0
  0
LINE
  8
0
 62
     0
 10
121.394
 20
99.8622
 30
0.0
 11
121.394
 21
85.8629
 31
0.0
  0
LINE
  8
0
 62
     0
 10
121.394
 20
85.8629
 30
0.0
 11
107.395
 21
85.8629
 31
0.0
  0
LINE
  8
0
 62
     0
 10
107.395
 20
85.8629
 30
0.0
 11
107.395
 21
99.8622
 31
0.0
  0
LINE
  8
0
 62
     0
 10
50.2447
 20
102.243
 30
0.0
 11
64.244
 21
102.243
 31
0.0
  0
LINE
  8
0
 62
     0
 10
64.244
 20
102.243
 30
0.0
 11
64.244
 21
88.2442
 31
0.0
  0
LINE
  8
0
 62
     0
 10
64.244
 20
88.2442
 30
0.0
 11
50.2447
 21
88.2442
 31
0.0
  0
LINE
  8
0
 62
     0
 10
50.2447
 20
88.2442
 30
0.0
 11
50.2447
 21
102.243
 31
0.0
  0
LINE
  8
0
 62
     0
 10
88.3447
 20
102.243
 30
0.0
 11
102.344
 21
102.243
 31
0.0
  0
LINE
  8
0
 62
     0
 10
102.344
 20
102.243
 30
0.0
 11
102.344
 21
88.2442
 31
0.0
  0
LINE
  8
0
 62
     0
 10
102.344
 20
88.2442
 30
0.0
 11
88.3447
 21
88.2442
 31
0.0
  0
LINE
  8
0
 62
     0
 10
88.3447
 20
88.2442
 30
0.0
 11
88.3447
 21
102.243
 31
0.0
  0
LINE
  8
0
 62
     0
 10
69.2947
 20
104.625
 30
0.0
 11
83.294
 21
104.625
 31
0.0
  0
LINE
  8
0
 62
     0
 10
83.294
 20
104.625
 30
0.0
 11
83.294
 21
90.6254
 31
0.0
  0
LINE
  8
0
 62
     0
 10
83.294
 20
90.6254
 30
0.0
 11
69.2947
 21
90.6254
 31
0.0
  0
LINE
  8
0
 62
     0
 10
69.2947
 20
90.6254
 30
0.0
 11
69.2947
 21
104.625
 31
0.0
  0
ENDSEC
  0
EOF
