999
FreeCAD v0.20 29177 +426 (Git)
  0
SECTION
  2
HEADER
  9
$ACADVER
  1
AC1014
  9
$ACADMAINTVER
 70
     9
  9
$DWGCODEPAGE
  3
ANSI_1252
  9
$TEXTSTYLE
  7
STANDARD
  9
$DIMSTYLE
  2
STANDARD
  9
$DIMTXSTY
  7
STANDARD
  9
$CMLSTYLE
  2
STANDARD
  9
$LUNITS
 70
2
  9
$INSUNITS
 70
4
  9
$PEXTMAX
 10
50
 20
50
 30
50
  9
$PEXTMIN
 10
0
 20
0
 30
0
  9
$HANDSEED
  5
FFFF
  0
ENDSEC
  0
SECTION
  2
CLASSES
  0
CLASS
  1
ACDBDICTIONARYWDFLT
  2
AcDbDictionaryWithDefault
  3
ObjectDBX Classes
 90
        0
280
     0
281
     0
  0
CLASS
  1
XRECORD
  2
AcDbXrecord
  3
ObjectDBX Classes
 90
        0
280
     0
281
     0
  0
CLASS
  1
LWPOLYLINE
  2
AcDbPolyline
  3
ObjectDBX Classes
 90
        0
280
     0
281
     1
  0
ENDSEC
  0
SECTION
  2
TABLES
  0
TABLE
  2
VPORT
  5
20
330
0
100
AcDbSymbolTable
 70
     1
  0
VPORT
  5
21
330
20
100
AcDbSymbolTableRecord
100
AcDbViewportTableRecord
  2
*ACTIVE
 70
     0
  0
ENDTAB
  0
TABLE
  2
LTYPE
  5
22
330
0
100
AcDbSymbolTable
 70
     1
  0
LTYPE
  5
23
330
21
100
AcDbSymbolTableRecord
100
AcDbLinetypeTableRecord
  2
BYBLOCK
 70
     0
  3

 72
    65
 73
     0
 40
0.0
  0
LTYPE
  5
24
330
21
100
AcDbSymbolTableRecord
100
AcDbLinetypeTableRecord
  2
BYLAYER
 70
     0
  3

 72
    65
 73
     0
 40
0.0
  0
LTYPE
  5
25
330
21
100
AcDbSymbolTableRecord
100
AcDbLinetypeTableRecord
  2
CONTINUOUS
 70
     0
  3
Solid line
 72
    65
 73
     0
 40
0.0
  0
ENDTAB
  0
TABLE
  2
LAYER
  5
AA4
330
0
100
AcDbSymbolTable
 70
3
  0
LAYER
  5
AA5
330
AA4
100
AcDbSymbolTableRecord
100
AcDbLayerTableRecord
  2
0
 70
   0
 62
   7
  6
CONTINUOUS
  0
LAYER
  5
AA6
330
AA4
100
AcDbSymbolTableRecord
100
AcDbLayerTableRecord
  2
none
 70
    0
 62
    7
  6
CONTINUOUS
  0
LAYER
  5
AA7
330
AA4
100
AcDbSymbolTableRecord
100
AcDbLayerTableRecord
  2
Shape2DView
 70
    0
 62
    7
  6
CONTINUOUS
  0
ENDTAB
  0
TABLE
  2
STYLE
  5
70
330
0
100
AcDbSymbolTable
 70
     2
  0
STYLE
  5
71
330
70
100
AcDbSymbolTableRecord
100
AcDbTextStyleTableRecord
  2
STANDARD
 70
     0
 40
0.0
 41
1.0
 50
0.0
 71
     0
 42
2.5
  3
arial.ttf
  4

  0
STYLE
  5
72
330
70
100
AcDbSymbolTableRecord
100
AcDbTextStyleTableRecord
  2
ANNOTATIVE
 70
     0
 40
0.0
 41
1.0
 50
0.0
 71
     0
 42
2.5
  3
arial.ttf
  4

  0
ENDTAB
  0
TABLE
  2
VIEW
  5
73
330
0
100
AcDbSymbolTable
 70
     0
  0
ENDTAB
  0
TABLE
  2
UCS
  5
74
330
0
100
AcDbSymbolTable
 70
     0
  0
ENDTAB
  0
TABLE
  2
APPID
  5
75
330
0
100
AcDbSymbolTable
 70
     2
  0
APPID
  5
76
330
75
100
AcDbSymbolTableRecord
100
AcDbRegAppTableRecord
  2
ACAD
 70
     0
  0
APPID
  5
77
330
75
100
AcDbSymbolTableRecord
100
AcDbRegAppTableRecord
  2
ACADANNOTATIVE
 70
     0
  0
ENDTAB
  0
TABLE
  2
DIMSTYLE
  5
78
330
0
100
AcDbSymbolTable
 70
     2
  0
DIMSTYLE
105
79
330
78
100
AcDbSymbolTableRecord
100
AcDbDimStyleTableRecord
  2
STANDARD
 70
     0
  3

  4

  5

  6

  7

 40
0.0
 41
2.5
 42
0.625
 43
3.75
 44
1.25
 45
0.0
 46
0.0
 47
0.0
 48
0.0
140
2.5
141
2.5
142
0.0
143
0.03937007874016
144
1.0
145
0.0
146
1.0
147
0.625
 71
     0
 72
     0
 73
     0
 74
     0
 75
     0
 76
     0
 77
     1
 78
     8
170
     0
171
     3
172
     1
173
     0
174
     0
175
     0
176
     0
177
     0
178
     0
270
     2
271
     2
272
     2
273
     2
274
     3
340
71
275
     0
280
     0
281
     0
282
     0
283
     0
284
     8
285
     0
286
     0
287
     3
288
     0
  0
ENDTAB
  0
TABLE
  2
BLOCK_RECORD
  5
A01
330
0
100
AcDbSymbolTable
  70
5
  0
BLOCK_RECORD
  5
A02
330
A01
100
AcDbSymbolTableRecord
100
AcDbBlockTableRecord
  2
*MODEL_SPACE
  0
BLOCK_RECORD
  5
A03
330
A01
100
AcDbSymbolTableRecord
100
AcDbBlockTableRecord
  2
*PAPER_SPACE
  0
ENDTAB
  0
ENDSEC
  0
SECTION
  2
BLOCKS
  0
BLOCK
  5
A04
330
A02
100
AcDbEntity
  8
0
100
AcDbBlockBegin
  2
*MODEL_SPACE
 70
   0
 10
0
 20
0
 30
0
  3
*MODEL_SPACE
  1
 
  0
ENDBLK
  5
A05
330
A02
100
AcDbEntity
  8
0
100
AcDbBlockEnd
  0
BLOCK
  5
A06
330
A03
100
AcDbEntity
 67
1
  8
0
100
AcDbBlockBegin
  2
*PAPER_SPACE
 70
   0
 10
0
 20
0
 30
0
  3
*PAPER_SPACE
  1
 
  0
ENDBLK
  5
A07
330
A03
100
AcDbEntity
 67
    1
  8
0
100
AcDbBlockEnd
  0
ENDSEC
  0
SECTION
  2
ENTITIES
  0
ARC
  5
A08
330
A02
100
AcDbEntity
  8
Shape2DView
100
AcDbCircle
 10
114.832
 20
106.2
 30
0
 40
4
100
AcDbArc
 50
180
 51
-90
  0
LINE
  5
A09
330
A02
100
AcDbEntity
  8
Shape2DView
100
AcDbLine
 10
114.832
 20
102.2
 30
0
 11
117
 21
102.2
 31
0
  0
LINE
  5
A0A
330
A02
100
AcDbEntity
  8
Shape2DView
100
AcDbLine
 10
117
 20
102.2
 30
0
 11
117
 21
32.569
 31
0
  0
LINE
  5
A0B
330
A02
100
AcDbEntity
  8
Shape2DView
100
AcDbLine
 10
117
 20
32.569
 30
0
 11
134.524
 21
22.0473
 31
0
  0
ARC
  5
A0C
330
A02
100
AcDbEntity
  8
Shape2DView
100
AcDbCircle
 10
133
 20
19.5096
 30
0
 40
2.96
100
AcDbArc
 50
-30.9813
 51
59.0187
  0
LINE
  5
A0D
330
A02
100
AcDbEntity
  8
Shape2DView
100
AcDbLine
 10
126.3
 20
2.6
 30
0
 11
135.538
 21
17.9859
 31
0
  0
LINE
  5
A0E
330
A02
100
AcDbEntity
  8
Shape2DView
100
AcDbLine
 10
123.091
 20
2.19379
 30
0
 11
126.3
 21
2.6
 31
0
  0
ARC
  5
A0F
330
A02
100
AcDbEntity
  8
Shape2DView
100
AcDbCircle
 10
123.593
 20
-1.77454
 30
0
 40
4
100
AcDbArc
 50
97.2137
 51
-172.786
  0
ARC
  5
A10
330
A02
100
AcDbEntity
  8
Shape2DView
100
AcDbCircle
 10
115.633
 20
-2.52999
 30
0
 40
4
100
AcDbArc
 50
-172.187
 51
3.6287
  0
ARC
  5
A11
330
A02
100
AcDbEntity
  8
Shape2DView
100
AcDbCircle
 10
107.702
 20
-3.57606
 30
0
 40
4
100
AcDbArc
 50
7.21375
 51
97.2137
  0
LINE
  5
A12
330
A02
100
AcDbEntity
  8
Shape2DView
100
AcDbLine
 10
104.1
 20
0
 30
0
 11
107.199
 21
0.392278
 31
0
  0
LINE
  5
A13
330
A02
100
AcDbEntity
  8
Shape2DView
100
AcDbLine
 10
61.9
 20
7.1
 30
0
 11
104.1
 21
-1.77636e-15
 31
0
  0
LINE
  5
A14
330
A02
100
AcDbEntity
  8
Shape2DView
100
AcDbLine
 10
0
 20
26.1
 30
0
 11
61.9
 21
7.1
 31
0
  0
LINE
  5
A15
330
A02
100
AcDbEntity
  8
Shape2DView
100
AcDbLine
 10
0
 20
26.1
 30
0
 11
0
 21
49.3593
 31
0
  0
ARC
  5
A16
330
A02
100
AcDbEntity
  8
Shape2DView
100
AcDbCircle
 10
-4
 20
49.3593
 30
0
 40
4
100
AcDbArc
 50
0
 51
90
  0
ARC
  5
A17
330
A02
100
AcDbEntity
  8
Shape2DView
100
AcDbCircle
 10
-4
 20
57.3593
 30
0
 40
4
100
AcDbArc
 50
90
 51
-90
  0
ARC
  5
A18
330
A02
100
AcDbEntity
  8
Shape2DView
100
AcDbCircle
 10
-4
 20
65.3593
 30
0
 40
4
100
AcDbArc
 50
-90
 51
0
  0
LINE
  5
A19
330
A02
100
AcDbEntity
  8
Shape2DView
100
AcDbLine
 10
0
 20
65.3593
 30
0
 11
0
 21
99.9
 31
0
  0
ARC
  5
A1A
330
A02
100
AcDbEntity
  8
Shape2DView
100
AcDbCircle
 10
2.4
 20
99.9
 30
0
 40
2.4
100
AcDbArc
 50
90
 51
180
  0
LINE
  5
A1B
330
A02
100
AcDbEntity
  8
Shape2DView
100
AcDbLine
 10
2.4
 20
102.3
 30
0
 11
2.63883
 21
102.3
 31
0
  0
ARC
  5
A1C
330
A02
100
AcDbEntity
  8
Shape2DView
100
AcDbCircle
 10
1.69335
 20
106.187
 30
0
 40
4
100
AcDbArc
 50
-76.3276
 51
1.6238
  0
ARC
  5
A1D
330
A02
100
AcDbEntity
  8
Shape2DView
100
AcDbCircle
 10
9.69175
 20
106.3
 30
0
 40
4
100
AcDbArc
 50
0
 51
180
  0
ARC
  5
A1E
330
A02
100
AcDbEntity
  8
Shape2DView
100
AcDbCircle
 10
17.6917
 20
106.299
 30
0
 40
4
100
AcDbArc
 50
179.991
 51
-91.0399
  0
LINE
  5
A1F
330
A02
100
AcDbEntity
  8
Shape2DView
100
AcDbLine
 10
17.6192
 20
102.3
 30
0
 11
40.5
 21
102.3
 31
0
  0
ARC
  5
A20
330
A02
100
AcDbEntity
  8
Shape2DView
100
AcDbCircle
 10
42.998
 20
102.2
 30
0
 40
2.5
100
AcDbArc
 50
89.9541
 51
177.708
  0
LINE
  5
A21
330
A02
100
AcDbEntity
  8
Shape2DView
100
AcDbLine
 10
43
 20
104.7
 30
0
 11
59.5
 21
104.7
 31
0
  0
ARC
  5
A22
330
A02
100
AcDbEntity
  8
Shape2DView
100
AcDbCircle
 10
61.8979
 20
104.6
 30
0
 40
2.4
100
AcDbArc
 50
90
 51
177.612
  0
LINE
  5
A23
330
A02
100
AcDbEntity
  8
Shape2DView
100
AcDbLine
 10
61.8979
 20
107
 30
0
 11
76.1
 21
107
 31
0
  0
ARC
  5
A24
330
A02
100
AcDbEntity
  8
Shape2DView
100
AcDbCircle
 10
76.1
 20
104.6
 30
0
 40
2.4
100
AcDbArc
 50
0
 51
90
  0
LINE
  5
A25
330
A02
100
AcDbEntity
  8
Shape2DView
100
AcDbLine
 10
78.5
 20
104.6
 30
0
 11
95.1
 21
104.6
 31
0
  0
ARC
  5
A26
330
A02
100
AcDbEntity
  8
Shape2DView
100
AcDbCircle
 10
95.1
 20
102.2
 30
0
 40
2.4
100
AcDbArc
 50
3.39259e-13
 51
90
  0
LINE
  5
A27
330
A02
100
AcDbEntity
  8
Shape2DView
100
AcDbLine
 10
97.5
 20
102.2
 30
0
 11
98.8324
 21
102.2
 31
0
  0
ARC
  5
A28
330
A02
100
AcDbEntity
  8
Shape2DView
100
AcDbCircle
 10
98.8324
 20
106.2
 30
0
 40
4
100
AcDbArc
 50
-90
 51
0
  0
ARC
  5
A29
330
A02
100
AcDbEntity
  8
Shape2DView
100
AcDbCircle
 10
106.832
 20
106.2
 30
0
 40
4
100
AcDbArc
 50
0
 51
180
  0
LINE
  5
A2A
330
A02
100
AcDbEntity
  8
Shape2DView
100
AcDbLine
 10
113.146
 20
14.7765
 30
0
 11
125.271
 21
7.77653
 31
0
  0
LINE
  5
A2B
330
A02
100
AcDbEntity
  8
Shape2DView
100
AcDbLine
 10
125.271
 20
7.77653
 30
0
 11
132.271
 21
19.9009
 31
0
  0
LINE
  5
A2C
330
A02
100
AcDbEntity
  8
Shape2DView
100
AcDbLine
 10
132.271
 20
19.9009
 30
0
 11
120.146
 21
26.9009
 31
0
  0
LINE
  5
A2D
330
A02
100
AcDbEntity
  8
Shape2DView
100
AcDbLine
 10
120.146
 20
26.9009
 30
0
 11
113.146
 21
14.7765
 31
0
  0
LINE
  5
A2E
330
A02
100
AcDbEntity
  8
Shape2DView
100
AcDbLine
 10
84.8
 20
7.82704
 30
0
 11
98.323
 21
4.20357
 31
0
  0
LINE
  5
A2F
330
A02
100
AcDbEntity
  8
Shape2DView
100
AcDbLine
 10
98.323
 20
4.20357
 30
0
 11
101.946
 21
17.7265
 31
0
  0
LINE
  5
A30
330
A02
100
AcDbEntity
  8
Shape2DView
100
AcDbLine
 10
101.946
 20
17.7265
 30
0
 11
88.4235
 21
21.35
 31
0
  0
LINE
  5
A31
330
A02
100
AcDbEntity
  8
Shape2DView
100
AcDbLine
 10
88.4235
 20
21.35
 30
0
 11
84.8
 21
7.82704
 31
0
  0
LINE
  5
A32
330
A02
100
AcDbEntity
  8
Shape2DView
100
AcDbLine
 10
5
 20
40.3
 30
0
 11
19
 21
40.3
 31
0
  0
LINE
  5
A33
330
A02
100
AcDbEntity
  8
Shape2DView
100
AcDbLine
 10
19
 20
40.3
 30
0
 11
19
 21
26.3
 31
0
  0
LINE
  5
A34
330
A02
100
AcDbEntity
  8
Shape2DView
100
AcDbLine
 10
19
 20
26.3
 30
0
 11
5
 21
26.3
 31
0
  0
LINE
  5
A35
330
A02
100
AcDbEntity
  8
Shape2DView
100
AcDbLine
 10
5
 20
26.3
 30
0
 11
5
 21
40.3
 31
0
  0
LINE
  5
A36
330
A02
100
AcDbEntity
  8
Shape2DView
100
AcDbLine
 10
62
 20
47.5
 30
0
 11
76
 21
47.5
 31
0
  0
LINE
  5
A37
330
A02
100
AcDbEntity
  8
Shape2DView
100
AcDbLine
 10
76
 20
47.5
 30
0
 11
76
 21
33.5
 31
0
  0
LINE
  5
A38
330
A02
100
AcDbEntity
  8
Shape2DView
100
AcDbLine
 10
76
 20
33.5
 30
0
 11
62
 21
33.5
 31
0
  0
LINE
  5
A39
330
A02
100
AcDbEntity
  8
Shape2DView
100
AcDbLine
 10
62
 20
33.5
 30
0
 11
62
 21
47.5
 31
0
  0
LINE
  5
A3A
330
A02
100
AcDbEntity
  8
Shape2DView
100
AcDbLine
 10
100
 20
42.7
 30
0
 11
114
 21
42.7
 31
0
  0
LINE
  5
A3B
330
A02
100
AcDbEntity
  8
Shape2DView
100
AcDbLine
 10
114
 20
42.7
 30
0
 11
114
 21
28.7
 31
0
  0
LINE
  5
A3C
330
A02
100
AcDbEntity
  8
Shape2DView
100
AcDbLine
 10
114
 20
28.7
 30
0
 11
100
 21
28.7
 31
0
  0
LINE
  5
A3D
330
A02
100
AcDbEntity
  8
Shape2DView
100
AcDbLine
 10
100
 20
28.7
 30
0
 11
100
 21
42.7
 31
0
  0
LINE
  5
A3E
330
A02
100
AcDbEntity
  8
Shape2DView
100
AcDbLine
 10
24
 20
26.3
 30
0
 11
24
 21
40.3
 31
0
  0
LINE
  5
A3F
330
A02
100
AcDbEntity
  8
Shape2DView
100
AcDbLine
 10
24
 20
40.3
 30
0
 11
38
 21
40.3
 31
0
  0
LINE
  5
A40
330
A02
100
AcDbEntity
  8
Shape2DView
100
AcDbLine
 10
38
 20
40.3
 30
0
 11
38
 21
26.3
 31
0
  0
LINE
  5
A41
330
A02
100
AcDbEntity
  8
Shape2DView
100
AcDbLine
 10
38
 20
26.3
 30
0
 11
24
 21
26.3
 31
0
  0
LINE
  5
A42
330
A02
100
AcDbEntity
  8
Shape2DView
100
AcDbLine
 10
5
 20
59.3
 30
0
 11
19
 21
59.3
 31
0
  0
LINE
  5
A43
330
A02
100
AcDbEntity
  8
Shape2DView
100
AcDbLine
 10
19
 20
59.3
 30
0
 11
19
 21
45.3
 31
0
  0
LINE
  5
A44
330
A02
100
AcDbEntity
  8
Shape2DView
100
AcDbLine
 10
19
 20
45.3
 30
0
 11
5
 21
45.3
 31
0
  0
LINE
  5
A45
330
A02
100
AcDbEntity
  8
Shape2DView
100
AcDbLine
 10
5
 20
45.3
 30
0
 11
5
 21
59.3
 31
0
  0
LINE
  5
A46
330
A02
100
AcDbEntity
  8
Shape2DView
100
AcDbLine
 10
81
 20
64.1
 30
0
 11
95
 21
64.1
 31
0
  0
LINE
  5
A47
330
A02
100
AcDbEntity
  8
Shape2DView
100
AcDbLine
 10
95
 20
64.1
 30
0
 11
95
 21
50.1
 31
0
  0
LINE
  5
A48
330
A02
100
AcDbEntity
  8
Shape2DView
100
AcDbLine
 10
95
 20
50.1
 30
0
 11
81
 21
50.1
 31
0
  0
LINE
  5
A49
330
A02
100
AcDbEntity
  8
Shape2DView
100
AcDbLine
 10
81
 20
50.1
 30
0
 11
81
 21
64.1
 31
0
  0
LINE
  5
A4A
330
A02
100
AcDbEntity
  8
Shape2DView
100
AcDbLine
 10
62
 20
66.5
 30
0
 11
76
 21
66.5
 31
0
  0
LINE
  5
A4B
330
A02
100
AcDbEntity
  8
Shape2DView
100
AcDbLine
 10
76
 20
66.5
 30
0
 11
76
 21
52.5
 31
0
  0
LINE
  5
A4C
330
A02
100
AcDbEntity
  8
Shape2DView
100
AcDbLine
 10
76
 20
52.5
 30
0
 11
62
 21
52.5
 31
0
  0
LINE
  5
A4D
330
A02
100
AcDbEntity
  8
Shape2DView
100
AcDbLine
 10
62
 20
52.5
 30
0
 11
62
 21
66.5
 31
0
  0
LINE
  5
A4E
330
A02
100
AcDbEntity
  8
Shape2DView
100
AcDbLine
 10
43
 20
64.1
 30
0
 11
57
 21
64.1
 31
0
  0
LINE
  5
A4F
330
A02
100
AcDbEntity
  8
Shape2DView
100
AcDbLine
 10
57
 20
64.1
 30
0
 11
57
 21
50.1
 31
0
  0
LINE
  5
A50
330
A02
100
AcDbEntity
  8
Shape2DView
100
AcDbLine
 10
57
 20
50.1
 30
0
 11
43
 21
50.1
 31
0
  0
LINE
  5
A51
330
A02
100
AcDbEntity
  8
Shape2DView
100
AcDbLine
 10
43
 20
50.1
 30
0
 11
43
 21
64.1
 31
0
  0
LINE
  5
A52
330
A02
100
AcDbEntity
  8
Shape2DView
100
AcDbLine
 10
100
 20
61.7
 30
0
 11
114
 21
61.7
 31
0
  0
LINE
  5
A53
330
A02
100
AcDbEntity
  8
Shape2DView
100
AcDbLine
 10
114
 20
61.7
 30
0
 11
114
 21
47.7
 31
0
  0
LINE
  5
A54
330
A02
100
AcDbEntity
  8
Shape2DView
100
AcDbLine
 10
114
 20
47.7
 30
0
 11
100
 21
47.7
 31
0
  0
LINE
  5
A55
330
A02
100
AcDbEntity
  8
Shape2DView
100
AcDbLine
 10
100
 20
47.7
 30
0
 11
100
 21
61.7
 31
0
  0
LINE
  5
A56
330
A02
100
AcDbEntity
  8
Shape2DView
100
AcDbLine
 10
24
 20
45.3
 30
0
 11
24
 21
59.3
 31
0
  0
LINE
  5
A57
330
A02
100
AcDbEntity
  8
Shape2DView
100
AcDbLine
 10
24
 20
59.3
 30
0
 11
38
 21
59.3
 31
0
  0
LINE
  5
A58
330
A02
100
AcDbEntity
  8
Shape2DView
100
AcDbLine
 10
38
 20
59.3
 30
0
 11
38
 21
45.3
 31
0
  0
LINE
  5
A59
330
A02
100
AcDbEntity
  8
Shape2DView
100
AcDbLine
 10
38
 20
45.3
 30
0
 11
24
 21
45.3
 31
0
  0
LINE
  5
A5A
330
A02
100
AcDbEntity
  8
Shape2DView
100
AcDbLine
 10
5
 20
78.3
 30
0
 11
19
 21
78.3
 31
0
  0
LINE
  5
A5B
330
A02
100
AcDbEntity
  8
Shape2DView
100
AcDbLine
 10
19
 20
78.3
 30
0
 11
19
 21
64.3
 31
0
  0
LINE
  5
A5C
330
A02
100
AcDbEntity
  8
Shape2DView
100
AcDbLine
 10
19
 20
64.3
 30
0
 11
5
 21
64.3
 31
0
  0
LINE
  5
A5D
330
A02
100
AcDbEntity
  8
Shape2DView
100
AcDbLine
 10
5
 20
64.3
 30
0
 11
5
 21
78.3
 31
0
  0
LINE
  5
A5E
330
A02
100
AcDbEntity
  8
Shape2DView
100
AcDbLine
 10
81
 20
83.1
 30
0
 11
95
 21
83.1
 31
0
  0
LINE
  5
A5F
330
A02
100
AcDbEntity
  8
Shape2DView
100
AcDbLine
 10
95
 20
83.1
 30
0
 11
95
 21
69.1
 31
0
  0
LINE
  5
A60
330
A02
100
AcDbEntity
  8
Shape2DView
100
AcDbLine
 10
95
 20
69.1
 30
0
 11
81
 21
69.1
 31
0
  0
LINE
  5
A61
330
A02
100
AcDbEntity
  8
Shape2DView
100
AcDbLine
 10
81
 20
69.1
 30
0
 11
81
 21
83.1
 31
0
  0
LINE
  5
A62
330
A02
100
AcDbEntity
  8
Shape2DView
100
AcDbLine
 10
62
 20
85.5
 30
0
 11
76
 21
85.5
 31
0
  0
LINE
  5
A63
330
A02
100
AcDbEntity
  8
Shape2DView
100
AcDbLine
 10
76
 20
85.5
 30
0
 11
76
 21
71.5
 31
0
  0
LINE
  5
A64
330
A02
100
AcDbEntity
  8
Shape2DView
100
AcDbLine
 10
76
 20
71.5
 30
0
 11
62
 21
71.5
 31
0
  0
LINE
  5
A65
330
A02
100
AcDbEntity
  8
Shape2DView
100
AcDbLine
 10
62
 20
71.5
 30
0
 11
62
 21
85.5
 31
0
  0
LINE
  5
A66
330
A02
100
AcDbEntity
  8
Shape2DView
100
AcDbLine
 10
43
 20
83.1
 30
0
 11
57
 21
83.1
 31
0
  0
LINE
  5
A67
330
A02
100
AcDbEntity
  8
Shape2DView
100
AcDbLine
 10
57
 20
83.1
 30
0
 11
57
 21
69.1
 31
0
  0
LINE
  5
A68
330
A02
100
AcDbEntity
  8
Shape2DView
100
AcDbLine
 10
57
 20
69.1
 30
0
 11
43
 21
69.1
 31
0
  0
LINE
  5
A69
330
A02
100
AcDbEntity
  8
Shape2DView
100
AcDbLine
 10
43
 20
69.1
 30
0
 11
43
 21
83.1
 31
0
  0
LINE
  5
A6A
330
A02
100
AcDbEntity
  8
Shape2DView
100
AcDbLine
 10
100
 20
80.7
 30
0
 11
114
 21
80.7
 31
0
  0
LINE
  5
A6B
330
A02
100
AcDbEntity
  8
Shape2DView
100
AcDbLine
 10
114
 20
80.7
 30
0
 11
114
 21
66.7
 31
0
  0
LINE
  5
A6C
330
A02
100
AcDbEntity
  8
Shape2DView
100
AcDbLine
 10
114
 20
66.7
 30
0
 11
100
 21
66.7
 31
0
  0
LINE
  5
A6D
330
A02
100
AcDbEntity
  8
Shape2DView
100
AcDbLine
 10
100
 20
66.7
 30
0
 11
100
 21
80.7
 31
0
  0
LINE
  5
A6E
330
A02
100
AcDbEntity
  8
Shape2DView
100
AcDbLine
 10
24
 20
64.3
 30
0
 11
24
 21
78.3
 31
0
  0
LINE
  5
A6F
330
A02
100
AcDbEntity
  8
Shape2DView
100
AcDbLine
 10
24
 20
78.3
 30
0
 11
38
 21
78.3
 31
0
  0
LINE
  5
A70
330
A02
100
AcDbEntity
  8
Shape2DView
100
AcDbLine
 10
38
 20
78.3
 30
0
 11
38
 21
64.3
 31
0
  0
LINE
  5
A71
330
A02
100
AcDbEntity
  8
Shape2DView
100
AcDbLine
 10
38
 20
64.3
 30
0
 11
24
 21
64.3
 31
0
  0
LINE
  5
A72
330
A02
100
AcDbEntity
  8
Shape2DView
100
AcDbLine
 10
5
 20
97.3
 30
0
 11
19
 21
97.3
 31
0
  0
LINE
  5
A73
330
A02
100
AcDbEntity
  8
Shape2DView
100
AcDbLine
 10
19
 20
97.3
 30
0
 11
19
 21
83.3
 31
0
  0
LINE
  5
A74
330
A02
100
AcDbEntity
  8
Shape2DView
100
AcDbLine
 10
19
 20
83.3
 30
0
 11
5
 21
83.3
 31
0
  0
LINE
  5
A75
330
A02
100
AcDbEntity
  8
Shape2DView
100
AcDbLine
 10
5
 20
83.3
 30
0
 11
5
 21
97.3
 31
0
  0
LINE
  5
A76
330
A02
100
AcDbEntity
  8
Shape2DView
100
AcDbLine
 10
81
 20
102.2
 30
0
 11
95
 21
102.2
 31
0
  0
LINE
  5
A77
330
A02
100
AcDbEntity
  8
Shape2DView
100
AcDbLine
 10
95
 20
102.2
 30
0
 11
95
 21
88.2
 31
0
  0
LINE
  5
A78
330
A02
100
AcDbEntity
  8
Shape2DView
100
AcDbLine
 10
95
 20
88.2
 30
0
 11
81
 21
88.2
 31
0
  0
LINE
  5
A79
330
A02
100
AcDbEntity
  8
Shape2DView
100
AcDbLine
 10
81
 20
88.2
 30
0
 11
81
 21
102.2
 31
0
  0
LINE
  5
A7A
330
A02
100
AcDbEntity
  8
Shape2DView
100
AcDbLine
 10
62
 20
104.6
 30
0
 11
76
 21
104.6
 31
0
  0
LINE
  5
A7B
330
A02
100
AcDbEntity
  8
Shape2DView
100
AcDbLine
 10
76
 20
104.6
 30
0
 11
76
 21
90.6
 31
0
  0
LINE
  5
A7C
330
A02
100
AcDbEntity
  8
Shape2DView
100
AcDbLine
 10
76
 20
90.6
 30
0
 11
62
 21
90.6
 31
0
  0
LINE
  5
A7D
330
A02
100
AcDbEntity
  8
Shape2DView
100
AcDbLine
 10
62
 20
90.6
 30
0
 11
62
 21
104.6
 31
0
  0
LINE
  5
A7E
330
A02
100
AcDbEntity
  8
Shape2DView
100
AcDbLine
 10
43
 20
102.2
 30
0
 11
57
 21
102.2
 31
0
  0
LINE
  5
A7F
330
A02
100
AcDbEntity
  8
Shape2DView
100
AcDbLine
 10
57
 20
102.2
 30
0
 11
57
 21
88.2
 31
0
  0
LINE
  5
A80
330
A02
100
AcDbEntity
  8
Shape2DView
100
AcDbLine
 10
57
 20
88.2
 30
0
 11
43
 21
88.2
 31
0
  0
LINE
  5
A81
330
A02
100
AcDbEntity
  8
Shape2DView
100
AcDbLine
 10
43
 20
88.2
 30
0
 11
43
 21
102.2
 31
0
  0
LINE
  5
A82
330
A02
100
AcDbEntity
  8
Shape2DView
100
AcDbLine
 10
100
 20
99.8
 30
0
 11
114
 21
99.8
 31
0
  0
LINE
  5
A83
330
A02
100
AcDbEntity
  8
Shape2DView
100
AcDbLine
 10
114
 20
99.8
 30
0
 11
114
 21
85.8
 31
0
  0
LINE
  5
A84
330
A02
100
AcDbEntity
  8
Shape2DView
100
AcDbLine
 10
114
 20
85.8
 30
0
 11
100
 21
85.8
 31
0
  0
LINE
  5
A85
330
A02
100
AcDbEntity
  8
Shape2DView
100
AcDbLine
 10
100
 20
85.8
 30
0
 11
100
 21
99.8
 31
0
  0
LINE
  5
A86
330
A02
100
AcDbEntity
  8
Shape2DView
100
AcDbLine
 10
24
 20
83.3
 30
0
 11
24
 21
97.3
 31
0
  0
LINE
  5
A87
330
A02
100
AcDbEntity
  8
Shape2DView
100
AcDbLine
 10
24
 20
97.3
 30
0
 11
38
 21
97.3
 31
0
  0
LINE
  5
A88
330
A02
100
AcDbEntity
  8
Shape2DView
100
AcDbLine
 10
38
 20
97.3
 30
0
 11
38
 21
83.3
 31
0
  0
LINE
  5
A89
330
A02
100
AcDbEntity
  8
Shape2DView
100
AcDbLine
 10
38
 20
83.3
 30
0
 11
24
 21
83.3
 31
0
  0
LINE
  5
A8A
330
A02
100
AcDbEntity
  8
Shape2DView
100
AcDbLine
 10
62
 20
23.7
 30
0
 11
76
 21
23.7
 31
0
  0
LINE
  5
A8B
330
A02
100
AcDbEntity
  8
Shape2DView
100
AcDbLine
 10
76
 20
23.7
 30
0
 11
76
 21
9.7
 31
0
  0
LINE
  5
A8C
330
A02
100
AcDbEntity
  8
Shape2DView
100
AcDbLine
 10
76
 20
9.7
 30
0
 11
62
 21
9.7
 31
0
  0
LINE
  5
A8D
330
A02
100
AcDbEntity
  8
Shape2DView
100
AcDbLine
 10
62
 20
9.7
 30
0
 11
62
 21
23.7
 31
0
  0
LINE
  5
A8E
330
A02
100
AcDbEntity
  8
Shape2DView
100
AcDbLine
 10
81
 20
45.1
 30
0
 11
95
 21
45.1
 31
0
  0
LINE
  5
A8F
330
A02
100
AcDbEntity
  8
Shape2DView
100
AcDbLine
 10
95
 20
45.1
 30
0
 11
95
 21
31.1
 31
0
  0
LINE
  5
A90
330
A02
100
AcDbEntity
  8
Shape2DView
100
AcDbLine
 10
95
 20
31.1
 30
0
 11
81
 21
31.1
 31
0
  0
LINE
  5
A91
330
A02
100
AcDbEntity
  8
Shape2DView
100
AcDbLine
 10
81
 20
31.1
 30
0
 11
81
 21
45.1
 31
0
  0
LINE
  5
A92
330
A02
100
AcDbEntity
  8
Shape2DView
100
AcDbLine
 10
43
 20
45.1
 30
0
 11
57
 21
45.1
 31
0
  0
LINE
  5
A93
330
A02
100
AcDbEntity
  8
Shape2DView
100
AcDbLine
 10
57
 20
45.1
 30
0
 11
57
 21
31.1
 31
0
  0
LINE
  5
A94
330
A02
100
AcDbEntity
  8
Shape2DView
100
AcDbLine
 10
57
 20
31.1
 30
0
 11
43
 21
31.1
 31
0
  0
LINE
  5
A95
330
A02
100
AcDbEntity
  8
Shape2DView
100
AcDbLine
 10
43
 20
31.1
 30
0
 11
43
 21
45.1
 31
0
  0
CIRCLE
  5
A96
330
A02
100
AcDbEntity
  8
Shape2DView
100
AcDbCircle
 10
115.633
 20
-2.52999
 40
2.5
  0
CIRCLE
  5
A97
330
A02
100
AcDbEntity
  8
Shape2DView
100
AcDbCircle
 10
-4
 20
57.3593
 40
2.5
  0
CIRCLE
  5
A98
330
A02
100
AcDbEntity
  8
Shape2DView
100
AcDbCircle
 10
9.69175
 20
106.3
 40
2.5
  0
CIRCLE
  5
A99
330
A02
100
AcDbEntity
  8
Shape2DView
100
AcDbCircle
 10
106.832
 20
106.2
 40
2.5
  0
CIRCLE
  5
A9A
330
A02
100
AcDbEntity
  8
Shape2DView
100
AcDbCircle
 10
107.237
 20
9.43599
 40
2
  0
CIRCLE
  5
A9B
330
A02
100
AcDbEntity
  8
Shape2DView
100
AcDbCircle
 10
98.2457
 20
64.3391
 40
2
  0
CIRCLE
  5
A9C
330
A02
100
AcDbEntity
  8
Shape2DView
100
AcDbCircle
 10
79.1635
 20
85.8173
 40
2
  0
CIRCLE
  5
A9D
330
A02
100
AcDbEntity
  8
Shape2DView
100
AcDbCircle
 10
59.6586
 20
86.7615
 40
2
  0
CIRCLE
  5
A9E
330
A02
100
AcDbEntity
  8
Shape2DView
100
AcDbCircle
 10
76.0519
 20
28.3453
 40
2
  0
CIRCLE
  5
A9F
330
A02
100
AcDbEntity
  8
Shape2DView
100
AcDbCircle
 10
48.1132
 20
16.4695
 40
2
  0
CIRCLE
  5
AA0
330
A02
100
AcDbEntity
  8
Shape2DView
100
AcDbCircle
 10
59.1273
 20
47.6323
 40
2
  0
CIRCLE
  5
AA1
330
A02
100
AcDbEntity
  8
Shape2DView
100
AcDbCircle
 10
21.5877
 20
42.7891
 40
2
  0
CIRCLE
  5
AA2
330
A02
100
AcDbEntity
  8
Shape2DView
100
AcDbCircle
 10
21.5467
 20
61.8994
 40
2
  0
CIRCLE
  5
AA3
330
A02
100
AcDbEntity
  8
Shape2DView
100
AcDbCircle
 10
21.6769
 20
80.8947
 40
2
  0
ENDSEC
  0
SECTION
  2
OBJECTS
  0
DICTIONARY
  5
F000
330
0
100
AcDbDictionary
  3
ACAD_GROUP
350
F001
  0
DICTIONARY
  5
F001
330
F000
100
AcDbDictionary
  0
ENDSEC
  0
EOF