999
FreeCAD v0.20 29177 +426 (Git)
  0
SECTION
  2
HEADER
  9
$ACADVER
  1
AC1014
  9
$ACADMAINTVER
 70
     9
  9
$DWGCODEPAGE
  3
ANSI_1252
  9
$TEXTSTYLE
  7
STANDARD
  9
$DIMSTYLE
  2
STANDARD
  9
$DIMTXSTY
  7
STANDARD
  9
$CMLSTYLE
  2
STANDARD
  9
$LUNITS
 70
2
  9
$INSUNITS
 70
4
  9
$PEXTMAX
 10
50
 20
50
 30
50
  9
$PEXTMIN
 10
0
 20
0
 30
0
  9
$HANDSEED
  5
FFFF
  0
ENDSEC
  0
SECTION
  2
CLASSES
  0
CLASS
  1
ACDBDICTIONARYWDFLT
  2
AcDbDictionaryWithDefault
  3
ObjectDBX Classes
 90
        0
280
     0
281
     0
  0
CLASS
  1
XRECORD
  2
AcDbXrecord
  3
ObjectDBX Classes
 90
        0
280
     0
281
     0
  0
CLASS
  1
LWPOLYLINE
  2
AcDbPolyline
  3
ObjectDBX Classes
 90
        0
280
     0
281
     1
  0
ENDSEC
  0
SECTION
  2
TABLES
  0
TABLE
  2
VPORT
  5
20
330
0
100
AcDbSymbolTable
 70
     1
  0
VPORT
  5
21
330
20
100
AcDbSymbolTableRecord
100
AcDbViewportTableRecord
  2
*ACTIVE
 70
     0
  0
ENDTAB
  0
TABLE
  2
LTYPE
  5
22
330
0
100
AcDbSymbolTable
 70
     1
  0
LTYPE
  5
23
330
21
100
AcDbSymbolTableRecord
100
AcDbLinetypeTableRecord
  2
BYBLOCK
 70
     0
  3

 72
    65
 73
     0
 40
0.0
  0
LTYPE
  5
24
330
21
100
AcDbSymbolTableRecord
100
AcDbLinetypeTableRecord
  2
BYLAYER
 70
     0
  3

 72
    65
 73
     0
 40
0.0
  0
LTYPE
  5
25
330
21
100
AcDbSymbolTableRecord
100
AcDbLinetypeTableRecord
  2
CONTINUOUS
 70
     0
  3
Solid line
 72
    65
 73
     0
 40
0.0
  0
ENDTAB
  0
TABLE
  2
LAYER
  5
A3A
330
0
100
AcDbSymbolTable
 70
3
  0
LAYER
  5
A3B
330
A3A
100
AcDbSymbolTableRecord
100
AcDbLayerTableRecord
  2
0
 70
   0
 62
   7
  6
CONTINUOUS
  0
LAYER
  5
A3C
330
A3A
100
AcDbSymbolTableRecord
100
AcDbLayerTableRecord
  2
none
 70
    0
 62
    7
  6
CONTINUOUS
  0
LAYER
  5
A3D
330
A3A
100
AcDbSymbolTableRecord
100
AcDbLayerTableRecord
  2
Shape2DView
 70
    0
 62
    7
  6
CONTINUOUS
  0
ENDTAB
  0
TABLE
  2
STYLE
  5
70
330
0
100
AcDbSymbolTable
 70
     2
  0
STYLE
  5
71
330
70
100
AcDbSymbolTableRecord
100
AcDbTextStyleTableRecord
  2
STANDARD
 70
     0
 40
0.0
 41
1.0
 50
0.0
 71
     0
 42
2.5
  3
arial.ttf
  4

  0
STYLE
  5
72
330
70
100
AcDbSymbolTableRecord
100
AcDbTextStyleTableRecord
  2
ANNOTATIVE
 70
     0
 40
0.0
 41
1.0
 50
0.0
 71
     0
 42
2.5
  3
arial.ttf
  4

  0
ENDTAB
  0
TABLE
  2
VIEW
  5
73
330
0
100
AcDbSymbolTable
 70
     0
  0
ENDTAB
  0
TABLE
  2
UCS
  5
74
330
0
100
AcDbSymbolTable
 70
     0
  0
ENDTAB
  0
TABLE
  2
APPID
  5
75
330
0
100
AcDbSymbolTable
 70
     2
  0
APPID
  5
76
330
75
100
AcDbSymbolTableRecord
100
AcDbRegAppTableRecord
  2
ACAD
 70
     0
  0
APPID
  5
77
330
75
100
AcDbSymbolTableRecord
100
AcDbRegAppTableRecord
  2
ACADANNOTATIVE
 70
     0
  0
ENDTAB
  0
TABLE
  2
DIMSTYLE
  5
78
330
0
100
AcDbSymbolTable
 70
     2
  0
DIMSTYLE
105
79
330
78
100
AcDbSymbolTableRecord
100
AcDbDimStyleTableRecord
  2
STANDARD
 70
     0
  3

  4

  5

  6

  7

 40
0.0
 41
2.5
 42
0.625
 43
3.75
 44
1.25
 45
0.0
 46
0.0
 47
0.0
 48
0.0
140
2.5
141
2.5
142
0.0
143
0.03937007874016
144
1.0
145
0.0
146
1.0
147
0.625
 71
     0
 72
     0
 73
     0
 74
     0
 75
     0
 76
     0
 77
     1
 78
     8
170
     0
171
     3
172
     1
173
     0
174
     0
175
     0
176
     0
177
     0
178
     0
270
     2
271
     2
272
     2
273
     2
274
     3
340
71
275
     0
280
     0
281
     0
282
     0
283
     0
284
     8
285
     0
286
     0
287
     3
288
     0
  0
ENDTAB
  0
TABLE
  2
BLOCK_RECORD
  5
A01
330
0
100
AcDbSymbolTable
  70
5
  0
BLOCK_RECORD
  5
A02
330
A01
100
AcDbSymbolTableRecord
100
AcDbBlockTableRecord
  2
*MODEL_SPACE
  0
BLOCK_RECORD
  5
A03
330
A01
100
AcDbSymbolTableRecord
100
AcDbBlockTableRecord
  2
*PAPER_SPACE
  0
ENDTAB
  0
ENDSEC
  0
SECTION
  2
BLOCKS
  0
BLOCK
  5
A04
330
A02
100
AcDbEntity
  8
0
100
AcDbBlockBegin
  2
*MODEL_SPACE
 70
   0
 10
0
 20
0
 30
0
  3
*MODEL_SPACE
  1
 
  0
ENDBLK
  5
A05
330
A02
100
AcDbEntity
  8
0
100
AcDbBlockEnd
  0
BLOCK
  5
A06
330
A03
100
AcDbEntity
 67
1
  8
0
100
AcDbBlockBegin
  2
*PAPER_SPACE
 70
   0
 10
0
 20
0
 30
0
  3
*PAPER_SPACE
  1
 
  0
ENDBLK
  5
A07
330
A03
100
AcDbEntity
 67
    1
  8
0
100
AcDbBlockEnd
  0
ENDSEC
  0
SECTION
  2
ENTITIES
  0
ARC
  5
A08
330
A02
100
AcDbEntity
  8
Shape2DView
100
AcDbCircle
 10
53.4273
 20
53.2111
 30
0
 40
4
100
AcDbArc
 50
-180
 51
-90
  0
LINE
  5
A09
330
A02
100
AcDbEntity
  8
Shape2DView
100
AcDbLine
 10
53.4273
 20
49.2111
 30
0
 11
75.2708
 21
49.2111
 31
0
  0
LINE
  5
A0A
330
A02
100
AcDbEntity
  8
Shape2DView
100
AcDbLine
 10
75.2708
 20
49.2111
 30
0
 11
75.2708
 21
-19.4489
 31
0
  0
LINE
  5
A0B
330
A02
100
AcDbEntity
  8
Shape2DView
100
AcDbLine
 10
75.2708
 20
-19.4489
 30
0
 11
75.3355
 21
-31.492
 31
0
  0
LINE
  5
A0C
330
A02
100
AcDbEntity
  8
Shape2DView
100
AcDbLine
 10
75.3565
 20
-37.5742
 30
0
 11
75.3355
 21
-31.492
 31
0
  0
LINE
  5
A0D
330
A02
100
AcDbEntity
  8
Shape2DView
100
AcDbLine
 10
75.3565
 20
-37.5742
 30
0
 11
74.3182
 21
-39.1267
 31
0
  0
ARC
  5
A0E
330
A02
100
AcDbEntity
  8
Shape2DView
100
AcDbCircle
 10
77.6431
 20
-41.3504
 30
0
 40
4
100
AcDbArc
 50
146.226
 51
-123.774
  0
ARC
  5
A0F
330
A02
100
AcDbEntity
  8
Shape2DView
100
AcDbCircle
 10
73.1958
 20
-48.0003
 30
0
 40
4
100
AcDbArc
 50
-123.726
 51
56.2259
  0
ARC
  5
A10
330
A02
100
AcDbEntity
  8
Shape2DView
100
AcDbCircle
 10
68.7512
 20
-54.652
 30
0
 40
4
100
AcDbArc
 50
56.2259
 51
146.226
  0
LINE
  5
A11
330
A02
100
AcDbEntity
  8
Shape2DView
100
AcDbLine
 10
65.4263
 20
-52.4283
 30
0
 11
62.6348
 21
-56.6022
 31
0
  0
LINE
  5
A12
330
A02
100
AcDbEntity
  8
Shape2DView
100
AcDbLine
 10
46.2448
 20
-51.2222
 30
0
 11
62.6348
 21
-56.6022
 31
0
  0
LINE
  5
A13
330
A02
100
AcDbEntity
  8
Shape2DView
100
AcDbLine
 10
0.734822
 20
-46.7122
 30
0
 11
46.2448
 21
-51.2222
 31
0
  0
LINE
  5
A14
330
A02
100
AcDbEntity
  8
Shape2DView
100
AcDbLine
 10
-61.4052
 20
-26.9622
 30
0
 11
0.734822
 21
-46.7122
 31
0
  0
LINE
  5
A15
330
A02
100
AcDbEntity
  8
Shape2DView
100
AcDbLine
 10
-61.4052
 20
-26.9622
 30
0
 11
-61.4052
 21
-3.71291
 31
0
  0
ARC
  5
A16
330
A02
100
AcDbEntity
  8
Shape2DView
100
AcDbCircle
 10
-65.4052
 20
-3.71291
 30
0
 40
4
100
AcDbArc
 50
0
 51
90
  0
ARC
  5
A17
330
A02
100
AcDbEntity
  8
Shape2DView
100
AcDbCircle
 10
-65.4052
 20
4.28709
 30
0
 40
4
100
AcDbArc
 50
90
 51
-90
  0
ARC
  5
A18
330
A02
100
AcDbEntity
  8
Shape2DView
100
AcDbCircle
 10
-65.4052
 20
12.2871
 30
0
 40
4
100
AcDbArc
 50
-90
 51
-7.63333e-14
  0
LINE
  5
A19
330
A02
100
AcDbEntity
  8
Shape2DView
100
AcDbLine
 10
-61.4052
 20
12.2871
 30
0
 11
-61.4052
 21
46.8378
 31
0
  0
ARC
  5
A1A
330
A02
100
AcDbEntity
  8
Shape2DView
100
AcDbCircle
 10
-59.0052
 20
46.8378
 30
0
 40
2.4
100
AcDbArc
 50
90
 51
-180
  0
LINE
  5
A1B
330
A02
100
AcDbEntity
  8
Shape2DView
100
AcDbLine
 10
-59.0052
 20
49.2378
 30
0
 11
-58.7617
 21
49.2378
 31
0
  0
ARC
  5
A1C
330
A02
100
AcDbEntity
  8
Shape2DView
100
AcDbCircle
 10
-59.7126
 20
53.1231
 30
0
 40
4
100
AcDbArc
 50
-76.2472
 51
1.64288
  0
ARC
  5
A1D
330
A02
100
AcDbEntity
  8
Shape2DView
100
AcDbCircle
 10
-51.7143
 20
53.2378
 30
0
 40
4
100
AcDbArc
 50
1.01778e-13
 51
180
  0
ARC
  5
A1E
330
A02
100
AcDbEntity
  8
Shape2DView
100
AcDbCircle
 10
-43.7143
 20
53.2371
 30
0
 40
4
100
AcDbArc
 50
179.991
 51
-91.0338
  0
LINE
  5
A1F
330
A02
100
AcDbEntity
  8
Shape2DView
100
AcDbLine
 10
-43.7865
 20
49.2378
 30
0
 11
-20.9054
 21
49.2378
 31
0
  0
ARC
  5
A20
330
A02
100
AcDbEntity
  8
Shape2DView
100
AcDbCircle
 10
-18.4074
 20
49.1378
 30
0
 40
2.5
100
AcDbArc
 50
89.9507
 51
177.708
  0
LINE
  5
A21
330
A02
100
AcDbEntity
  8
Shape2DView
100
AcDbLine
 10
-18.4052
 20
51.6378
 30
0
 11
-1.90535
 21
51.6378
 31
0
  0
ARC
  5
A22
330
A02
100
AcDbEntity
  8
Shape2DView
100
AcDbCircle
 10
0.492573
 20
51.5381
 30
0
 40
2.4
100
AcDbArc
 50
90
 51
177.618
  0
LINE
  5
A23
330
A02
100
AcDbEntity
  8
Shape2DView
100
AcDbLine
 10
0.492573
 20
53.9381
 30
0
 11
14.6947
 21
53.9381
 31
0
  0
ARC
  5
A24
330
A02
100
AcDbEntity
  8
Shape2DView
100
AcDbCircle
 10
14.6947
 20
51.5381
 30
0
 40
2.4
100
AcDbArc
 50
0.123389
 51
90
  0
LINE
  5
A25
330
A02
100
AcDbEntity
  8
Shape2DView
100
AcDbLine
 10
17.0946
 20
51.5432
 30
0
 11
33.6956
 21
51.5432
 31
0
  0
ARC
  5
A26
330
A02
100
AcDbEntity
  8
Shape2DView
100
AcDbCircle
 10
33.6956
 20
49.1432
 30
0
 40
2.4
100
AcDbArc
 50
1.62029
 51
90
  0
LINE
  5
A27
330
A02
100
AcDbEntity
  8
Shape2DView
100
AcDbLine
 10
36.0946
 20
49.2111
 30
0
 11
37.4273
 21
49.2111
 31
0
  0
ARC
  5
A28
330
A02
100
AcDbEntity
  8
Shape2DView
100
AcDbCircle
 10
37.4273
 20
53.2111
 30
0
 40
4
100
AcDbArc
 50
-90
 51
0
  0
ARC
  5
A29
330
A02
100
AcDbEntity
  8
Shape2DView
100
AcDbCircle
 10
45.4273
 20
53.2111
 30
0
 40
4
100
AcDbArc
 50
0
 51
180
  0
CIRCLE
  5
A2A
330
A02
100
AcDbEntity
  8
Shape2DView
100
AcDbCircle
 10
73.1958
 20
-48.0003
 40
2.5
  0
CIRCLE
  5
A2B
330
A02
100
AcDbEntity
  8
Shape2DView
100
AcDbCircle
 10
-65.4052
 20
4.28709
 40
2.5
  0
CIRCLE
  5
A2C
330
A02
100
AcDbEntity
  8
Shape2DView
100
AcDbCircle
 10
-51.7143
 20
53.2378
 40
2.5
  0
CIRCLE
  5
A2D
330
A02
100
AcDbEntity
  8
Shape2DView
100
AcDbCircle
 10
45.4273
 20
53.2111
 40
2.5
  0
CIRCLE
  5
A2E
330
A02
100
AcDbEntity
  8
Shape2DView
100
AcDbCircle
 10
58.638
 20
-11.3548
 40
2
  0
CIRCLE
  5
A2F
330
A02
100
AcDbEntity
  8
Shape2DView
100
AcDbCircle
 10
54.3863
 20
-30.2873
 40
2
  0
CIRCLE
  5
A30
330
A02
100
AcDbEntity
  8
Shape2DView
100
AcDbCircle
 10
36.8405
 20
11.2668
 40
2
  0
CIRCLE
  5
A31
330
A02
100
AcDbEntity
  8
Shape2DView
100
AcDbCircle
 10
17.7583
 20
32.7451
 40
2
  0
CIRCLE
  5
A32
330
A02
100
AcDbEntity
  8
Shape2DView
100
AcDbCircle
 10
-1.74662
 20
33.6893
 40
2
  0
CIRCLE
  5
A33
330
A02
100
AcDbEntity
  8
Shape2DView
100
AcDbCircle
 10
14.6467
 20
-24.7269
 40
2
  0
CIRCLE
  5
A34
330
A02
100
AcDbEntity
  8
Shape2DView
100
AcDbCircle
 10
-13.292
 20
-36.6028
 40
2
  0
CIRCLE
  5
A35
330
A02
100
AcDbEntity
  8
Shape2DView
100
AcDbCircle
 10
-2.27783
 20
-5.43993
 40
2
  0
CIRCLE
  5
A36
330
A02
100
AcDbEntity
  8
Shape2DView
100
AcDbCircle
 10
-39.8174
 20
-10.2832
 40
2
  0
CIRCLE
  5
A37
330
A02
100
AcDbEntity
  8
Shape2DView
100
AcDbCircle
 10
-39.8584
 20
8.82714
 40
2
  0
CIRCLE
  5
A38
330
A02
100
AcDbEntity
  8
Shape2DView
100
AcDbCircle
 10
-39.7283
 20
27.8225
 40
2
  0
CIRCLE
  5
A39
330
A02
100
AcDbEntity
  8
Shape2DView
100
AcDbCircle
 10
65.4272
 20
44.6154
 40
2
  0
ENDSEC
  0
SECTION
  2
OBJECTS
  0
DICTIONARY
  5
F000
330
0
100
AcDbDictionary
  3
ACAD_GROUP
350
F001
  0
DICTIONARY
  5
F001
330
F000
100
AcDbDictionary
  0
ENDSEC
  0
EOF