  0
SECTION
  2
HEADER
  9
$ACADVER
  1
AC1009
  9
$FILLMODE
 70
 0
  9
$SPLFRAME
 70
 1
  9
$EXTMIN
 10
0
 20
0
 30
0.0
  9
$EXTMAX
 10
1058.33
 20
1058.33
 30
0.0
  0
ENDSEC
  0
SECTION
  2
TABLES
  0
TABLE
  2
LAYER
 70
1
  0
LAYER
  2
0
 70
     0
 62
     7
  6
CONTINUOUS
  0
ENDTAB
  0
ENDSEC
  0
SECTION
  2
ENTITIES
  0
LINE
  8
0
 62
     0
 10
0.0950846
 20
114.91
 30
0.0
 11
143.021
 21
114.91
 31
0.0
  0
LINE
  8
0
 62
     0
 10
143.021
 20
114.91
 30
0.0
 11
143.021
 21
0.373447
 31
0.0
  0
LINE
  8
0
 62
     0
 10
143.021
 20
0.373447
 30
0.0
 11
0.0950846
 21
0.373447
 31
0.0
  0
LINE
  8
0
 62
     0
 10
0.0950846
 20
0.373447
 30
0.0
 11
0.0950846
 21
114.91
 31
0.0
  0
LINE
  8
0
 62
     0
 10
118.065
 20
14.9476
 30
0.0
 11
130.189
 21
7.94854
 31
0.0
  0
LINE
  8
0
 62
     0
 10
130.189
 20
7.94854
 30
0.0
 11
137.188
 21
20.0725
 31
0.0
  0
LINE
  8
0
 62
     0
 10
137.188
 20
20.0725
 30
0.0
 11
125.064
 21
27.0729
 31
0.0
  0
LINE
  8
0
 62
     0
 10
125.064
 20
27.0729
 30
0.0
 11
118.065
 21
14.9476
 31
0.0
  0
LINE
  8
0
 62
     0
 10
96.187
 20
16.3835
 30
0.0
 11
109.711
 21
12.7593
 31
0.0
  0
LINE
  8
0
 62
     0
 10
109.711
 20
12.7593
 30
0.0
 11
113.334
 21
26.2819
 31
0.0
  0
LINE
  8
0
 62
     0
 10
113.334
 20
26.2819
 30
0.0
 11
99.8114
 21
29.9062
 31
0.0
  0
LINE
  8
0
 62
     0
 10
99.8114
 20
29.9062
 30
0.0
 11
96.187
 21
16.3835
 31
0.0
  0
LINE
  8
0
 62
     0
 10
76.9137
 20
31.4234
 30
0.0
 11
90.9147
 21
31.4234
 31
0.0
  0
LINE
  8
0
 62
     0
 10
90.9147
 20
31.4234
 30
0.0
 11
90.9147
 21
17.4239
 31
0.0
  0
LINE
  8
0
 62
     0
 10
90.9147
 20
17.4239
 30
0.0
 11
76.9137
 21
17.4239
 31
0.0
  0
LINE
  8
0
 62
     0
 10
76.9137
 20
17.4239
 30
0.0
 11
76.9137
 21
31.4234
 31
0.0
  0
LINE
  8
0
 62
     0
 10
12.1447
 20
47.9972
 30
0.0
 11
26.1441
 21
47.9972
 31
0.0
  0
LINE
  8
0
 62
     0
 10
26.1441
 20
47.9972
 30
0.0
 11
26.1441
 21
33.9976
 31
0.0
  0
LINE
  8
0
 62
     0
 10
26.1441
 20
33.9976
 30
0.0
 11
12.1447
 21
33.9976
 31
0.0
  0
LINE
  8
0
 62
     0
 10
12.1447
 20
33.9976
 30
0.0
 11
12.1447
 21
47.9972
 31
0.0
  0
LINE
  8
0
 62
     0
 10
31.1947
 20
47.9972
 30
0.0
 11
45.194
 21
47.9972
 31
0.0
  0
LINE
  8
0
 62
     0
 10
45.194
 20
47.9972
 30
0.0
 11
45.194
 21
33.9976
 31
0.0
  0
LINE
  8
0
 62
     0
 10
45.194
 20
33.9976
 30
0.0
 11
31.1947
 21
33.9976
 31
0.0
  0
LINE
  8
0
 62
     0
 10
31.1947
 20
33.9976
 30
0.0
 11
31.1947
 21
47.9972
 31
0.0
  0
LINE
  8
0
 62
     0
 10
107.395
 20
50.4733
 30
0.0
 11
121.394
 21
50.4733
 31
0.0
  0
LINE
  8
0
 62
     0
 10
121.394
 20
50.4733
 30
0.0
 11
121.394
 21
36.474
 31
0.0
  0
LINE
  8
0
 62
     0
 10
121.394
 20
36.474
 30
0.0
 11
107.395
 21
36.474
 31
0.0
  0
LINE
  8
0
 62
     0
 10
107.395
 20
36.474
 30
0.0
 11
107.395
 21
50.4733
 31
0.0
  0
LINE
  8
0
 62
     0
 10
50.2447
 20
52.8546
 30
0.0
 11
64.244
 21
52.8546
 31
0.0
  0
LINE
  8
0
 62
     0
 10
64.244
 20
52.8546
 30
0.0
 11
64.244
 21
38.8553
 31
0.0
  0
LINE
  8
0
 62
     0
 10
64.244
 20
38.8553
 30
0.0
 11
50.2447
 21
38.8553
 31
0.0
  0
LINE
  8
0
 62
     0
 10
50.2447
 20
38.8553
 30
0.0
 11
50.2447
 21
52.8546
 31
0.0
  0
LINE
  8
0
 62
     0
 10
88.3447
 20
52.8546
 30
0.0
 11
102.344
 21
52.8546
 31
0.0
  0
LINE
  8
0
 62
     0
 10
102.344
 20
52.8546
 30
0.0
 11
102.344
 21
38.8553
 31
0.0
  0
LINE
  8
0
 62
     0
 10
102.344
 20
38.8553
 30
0.0
 11
88.3447
 21
38.8553
 31
0.0
  0
LINE
  8
0
 62
     0
 10
88.3447
 20
38.8553
 30
0.0
 11
88.3447
 21
52.8546
 31
0.0
  0
LINE
  8
0
 62
     0
 10
69.2947
 20
55.2358
 30
0.0
 11
83.294
 21
55.2358
 31
0.0
  0
LINE
  8
0
 62
     0
 10
83.294
 20
55.2358
 30
0.0
 11
83.294
 21
41.2365
 31
0.0
  0
LINE
  8
0
 62
     0
 10
83.294
 20
41.2365
 30
0.0
 11
69.2947
 21
41.2365
 31
0.0
  0
LINE
  8
0
 62
     0
 10
69.2947
 20
41.2365
 30
0.0
 11
69.2947
 21
55.2358
 31
0.0
  0
LINE
  8
0
 62
     0
 10
12.1447
 20
67.0472
 30
0.0
 11
26.1441
 21
67.0472
 31
0.0
  0
LINE
  8
0
 62
     0
 10
26.1441
 20
67.0472
 30
0.0
 11
26.1441
 21
53.0475
 31
0.0
  0
LINE
  8
0
 62
     0
 10
26.1441
 20
53.0475
 30
0.0
 11
12.1447
 21
53.0475
 31
0.0
  0
LINE
  8
0
 62
     0
 10
12.1447
 20
53.0475
 30
0.0
 11
12.1447
 21
67.0472
 31
0.0
  0
LINE
  8
0
 62
     0
 10
31.1947
 20
67.0472
 30
0.0
 11
45.194
 21
67.0472
 31
0.0
  0
LINE
  8
0
 62
     0
 10
45.194
 20
67.0472
 30
0.0
 11
45.194
 21
53.0475
 31
0.0
  0
LINE
  8
0
 62
     0
 10
45.194
 20
53.0475
 30
0.0
 11
31.1947
 21
53.0475
 31
0.0
  0
LINE
  8
0
 62
     0
 10
31.1947
 20
53.0475
 30
0.0
 11
31.1947
 21
67.0472
 31
0.0
  0
LINE
  8
0
 62
     0
 10
107.395
 20
69.5233
 30
0.0
 11
121.394
 21
69.5233
 31
0.0
  0
LINE
  8
0
 62
     0
 10
121.394
 20
69.5233
 30
0.0
 11
121.394
 21
55.524
 31
0.0
  0
LINE
  8
0
 62
     0
 10
121.394
 20
55.524
 30
0.0
 11
107.395
 21
55.524
 31
0.0
  0
LINE
  8
0
 62
     0
 10
107.395
 20
55.524
 30
0.0
 11
107.395
 21
69.5233
 31
0.0
  0
LINE
  8
0
 62
     0
 10
50.2447
 20
71.9046
 30
0.0
 11
64.244
 21
71.9046
 31
0.0
  0
LINE
  8
0
 62
     0
 10
64.244
 20
71.9046
 30
0.0
 11
64.244
 21
57.9053
 31
0.0
  0
LINE
  8
0
 62
     0
 10
64.244
 20
57.9053
 30
0.0
 11
50.2447
 21
57.9053
 31
0.0
  0
LINE
  8
0
 62
     0
 10
50.2447
 20
57.9053
 30
0.0
 11
50.2447
 21
71.9046
 31
0.0
  0
LINE
  8
0
 62
     0
 10
88.3447
 20
71.9046
 30
0.0
 11
102.344
 21
71.9046
 31
0.0
  0
LINE
  8
0
 62
     0
 10
102.344
 20
71.9046
 30
0.0
 11
102.344
 21
57.9053
 31
0.0
  0
LINE
  8
0
 62
     0
 10
102.344
 20
57.9053
 30
0.0
 11
88.3447
 21
57.9053
 31
0.0
  0
LINE
  8
0
 62
     0
 10
88.3447
 20
57.9053
 30
0.0
 11
88.3447
 21
71.9046
 31
0.0
  0
LINE
  8
0
 62
     0
 10
69.2947
 20
74.2858
 30
0.0
 11
83.294
 21
74.2858
 31
0.0
  0
LINE
  8
0
 62
     0
 10
83.294
 20
74.2858
 30
0.0
 11
83.294
 21
60.2865
 31
0.0
  0
LINE
  8
0
 62
     0
 10
83.294
 20
60.2865
 30
0.0
 11
69.2947
 21
60.2865
 31
0.0
  0
LINE
  8
0
 62
     0
 10
69.2947
 20
60.2865
 30
0.0
 11
69.2947
 21
74.2858
 31
0.0
  0
LINE
  8
0
 62
     0
 10
12.1447
 20
86.0972
 30
0.0
 11
26.1441
 21
86.0972
 31
0.0
  0
LINE
  8
0
 62
     0
 10
26.1441
 20
86.0972
 30
0.0
 11
26.1441
 21
72.0975
 31
0.0
  0
LINE
  8
0
 62
     0
 10
26.1441
 20
72.0975
 30
0.0
 11
12.1447
 21
72.0975
 31
0.0
  0
LINE
  8
0
 62
     0
 10
12.1447
 20
72.0975
 30
0.0
 11
12.1447
 21
86.0972
 31
0.0
  0
LINE
  8
0
 62
     0
 10
31.1947
 20
86.0972
 30
0.0
 11
45.194
 21
86.0972
 31
0.0
  0
LINE
  8
0
 62
     0
 10
45.194
 20
86.0972
 30
0.0
 11
45.194
 21
72.0975
 31
0.0
  0
LINE
  8
0
 62
     0
 10
45.194
 20
72.0975
 30
0.0
 11
31.1947
 21
72.0975
 31
0.0
  0
LINE
  8
0
 62
     0
 10
31.1947
 20
72.0975
 30
0.0
 11
31.1947
 21
86.0972
 31
0.0
  0
LINE
  8
0
 62
     0
 10
107.395
 20
88.5733
 30
0.0
 11
121.394
 21
88.5733
 31
0.0
  0
LINE
  8
0
 62
     0
 10
121.394
 20
88.5733
 30
0.0
 11
121.394
 21
74.574
 31
0.0
  0
LINE
  8
0
 62
     0
 10
121.394
 20
74.574
 30
0.0
 11
107.395
 21
74.574
 31
0.0
  0
LINE
  8
0
 62
     0
 10
107.395
 20
74.574
 30
0.0
 11
107.395
 21
88.5733
 31
0.0
  0
LINE
  8
0
 62
     0
 10
50.2447
 20
90.9546
 30
0.0
 11
64.244
 21
90.9546
 31
0.0
  0
LINE
  8
0
 62
     0
 10
64.244
 20
90.9546
 30
0.0
 11
64.244
 21
76.9553
 31
0.0
  0
LINE
  8
0
 62
     0
 10
64.244
 20
76.9553
 30
0.0
 11
50.2447
 21
76.9553
 31
0.0
  0
LINE
  8
0
 62
     0
 10
50.2447
 20
76.9553
 30
0.0
 11
50.2447
 21
90.9546
 31
0.0
  0
LINE
  8
0
 62
     0
 10
88.3447
 20
90.9546
 30
0.0
 11
102.344
 21
90.9546
 31
0.0
  0
LINE
  8
0
 62
     0
 10
102.344
 20
90.9546
 30
0.0
 11
102.344
 21
76.9553
 31
0.0
  0
LINE
  8
0
 62
     0
 10
102.344
 20
76.9553
 30
0.0
 11
88.3447
 21
76.9553
 31
0.0
  0
LINE
  8
0
 62
     0
 10
88.3447
 20
76.9553
 30
0.0
 11
88.3447
 21
90.9546
 31
0.0
  0
LINE
  8
0
 62
     0
 10
69.2947
 20
93.3358
 30
0.0
 11
83.294
 21
93.3358
 31
0.0
  0
LINE
  8
0
 62
     0
 10
83.294
 20
93.3358
 30
0.0
 11
83.294
 21
79.3365
 31
0.0
  0
LINE
  8
0
 62
     0
 10
83.294
 20
79.3365
 30
0.0
 11
69.2947
 21
79.3365
 31
0.0
  0
LINE
  8
0
 62
     0
 10
69.2947
 20
79.3365
 30
0.0
 11
69.2947
 21
93.3358
 31
0.0
  0
LINE
  8
0
 62
     0
 10
12.1447
 20
105.147
 30
0.0
 11
26.1441
 21
105.147
 31
0.0
  0
LINE
  8
0
 62
     0
 10
26.1441
 20
105.147
 30
0.0
 11
26.1441
 21
91.1475
 31
0.0
  0
LINE
  8
0
 62
     0
 10
26.1441
 20
91.1475
 30
0.0
 11
12.1447
 21
91.1475
 31
0.0
  0
LINE
  8
0
 62
     0
 10
12.1447
 20
91.1475
 30
0.0
 11
12.1447
 21
105.147
 31
0.0
  0
LINE
  8
0
 62
     0
 10
31.1947
 20
105.147
 30
0.0
 11
45.194
 21
105.147
 31
0.0
  0
LINE
  8
0
 62
     0
 10
45.194
 20
105.147
 30
0.0
 11
45.194
 21
91.1475
 31
0.0
  0
LINE
  8
0
 62
     0
 10
45.194
 20
91.1475
 30
0.0
 11
31.1947
 21
91.1475
 31
0.0
  0
LINE
  8
0
 62
     0
 10
31.1947
 20
91.1475
 30
0.0
 11
31.1947
 21
105.147
 31
0.0
  0
LINE
  8
0
 62
     0
 10
107.395
 20
107.623
 30
0.0
 11
121.394
 21
107.623
 31
0.0
  0
LINE
  8
0
 62
     0
 10
121.394
 20
107.623
 30
0.0
 11
121.394
 21
93.624
 31
0.0
  0
LINE
  8
0
 62
     0
 10
121.394
 20
93.624
 30
0.0
 11
107.395
 21
93.624
 31
0.0
  0
LINE
  8
0
 62
     0
 10
107.395
 20
93.624
 30
0.0
 11
107.395
 21
107.623
 31
0.0
  0
LINE
  8
0
 62
     0
 10
50.2447
 20
110.005
 30
0.0
 11
64.244
 21
110.005
 31
0.0
  0
LINE
  8
0
 62
     0
 10
64.244
 20
110.005
 30
0.0
 11
64.244
 21
96.0053
 31
0.0
  0
LINE
  8
0
 62
     0
 10
64.244
 20
96.0053
 30
0.0
 11
50.2447
 21
96.0053
 31
0.0
  0
LINE
  8
0
 62
     0
 10
50.2447
 20
96.0053
 30
0.0
 11
50.2447
 21
110.005
 31
0.0
  0
LINE
  8
0
 62
     0
 10
88.3447
 20
110.005
 30
0.0
 11
102.344
 21
110.005
 31
0.0
  0
LINE
  8
0
 62
     0
 10
102.344
 20
110.005
 30
0.0
 11
102.344
 21
96.0053
 31
0.0
  0
LINE
  8
0
 62
     0
 10
102.344
 20
96.0053
 30
0.0
 11
88.3447
 21
96.0053
 31
0.0
  0
LINE
  8
0
 62
     0
 10
88.3447
 20
96.0053
 30
0.0
 11
88.3447
 21
110.005
 31
0.0
  0
LINE
  8
0
 62
     0
 10
69.2947
 20
112.386
 30
0.0
 11
83.294
 21
112.386
 31
0.0
  0
LINE
  8
0
 62
     0
 10
83.294
 20
112.386
 30
0.0
 11
83.294
 21
98.3865
 31
0.0
  0
LINE
  8
0
 62
     0
 10
83.294
 20
98.3865
 30
0.0
 11
69.2947
 21
98.3865
 31
0.0
  0
LINE
  8
0
 62
     0
 10
69.2947
 20
98.3865
 30
0.0
 11
69.2947
 21
112.386
 31
0.0
  0
ENDSEC
  0
EOF
